<svg xmlns="http://www.w3.org/2000/svg" xmlns:xlink="http://www.w3.org/1999/xlink" width="500" zoomAndPan="magnify" viewBox="0 0 375 374.999991" height="500" preserveAspectRatio="xMidYMid meet" version="1.0"><defs><g/></defs><g fill="#ffffff" fill-opacity="1"><g transform="translate(102.837577, 181.009882)"><g><path d="M 10.96875 -33.265625 C 11.613281 -33.640625 12.585938 -33.992188 13.890625 -34.328125 C 15.191406 -34.671875 16.5 -34.84375 17.8125 -34.84375 C 19.695312 -34.84375 21.363281 -34.566406 22.8125 -34.015625 C 24.269531 -33.472656 25.207031 -32.617188 25.625 -31.453125 C 26.300781 -29.484375 27.035156 -27.195312 27.828125 -24.59375 C 28.617188 -22 29.410156 -19.316406 30.203125 -16.546875 C 30.992188 -13.773438 31.765625 -11.039062 32.515625 -8.34375 C 33.273438 -5.644531 33.9375 -3.257812 34.5 -1.1875 C 34.050781 -0.65625 33.375 -0.234375 32.46875 0.078125 C 31.5625 0.398438 30.488281 0.5625 29.25 0.5625 C 28.34375 0.5625 27.578125 0.484375 26.953125 0.328125 C 26.328125 0.179688 25.816406 -0.0390625 25.421875 -0.34375 C 25.023438 -0.644531 24.703125 -1.039062 24.453125 -1.53125 C 24.210938 -2.019531 24 -2.582031 23.8125 -3.21875 L 22.796875 -7.125 L 12.5625 -7.125 C 12.257812 -6 11.957031 -4.832031 11.65625 -3.625 C 11.351562 -2.414062 11.050781 -1.242188 10.75 -0.109375 C 10.21875 0.078125 9.660156 0.234375 9.078125 0.359375 C 8.492188 0.492188 7.785156 0.5625 6.953125 0.5625 C 5.035156 0.5625 3.613281 0.234375 2.6875 -0.421875 C 1.757812 -1.078125 1.296875 -1.992188 1.296875 -3.171875 C 1.296875 -3.691406 1.367188 -4.21875 1.515625 -4.75 C 1.671875 -5.28125 1.84375 -5.90625 2.03125 -6.625 C 2.300781 -7.632812 2.671875 -8.894531 3.140625 -10.40625 C 3.609375 -11.914062 4.125 -13.546875 4.6875 -15.296875 C 5.257812 -17.054688 5.863281 -18.859375 6.5 -20.703125 C 7.144531 -22.546875 7.75 -24.285156 8.3125 -25.921875 C 8.875 -27.566406 9.390625 -29.03125 9.859375 -30.3125 C 10.335938 -31.59375 10.707031 -32.578125 10.96875 -33.265625 Z M 17.765625 -25.96875 C 17.234375 -24.382812 16.632812 -22.617188 15.96875 -20.671875 C 15.3125 -18.734375 14.722656 -16.765625 14.203125 -14.765625 L 21.203125 -14.765625 C 20.679688 -16.796875 20.144531 -18.78125 19.59375 -20.71875 C 19.050781 -22.664062 18.550781 -24.414062 18.09375 -25.96875 Z M 17.765625 -25.96875 "/></g></g></g><g fill="#ffffff" fill-opacity="1"><g transform="translate(138.297391, 181.009882)"><g><path d="M 16.125 -28.34375 C 17.664062 -28.34375 19.179688 -28.125 20.671875 -27.6875 C 22.160156 -27.25 23.453125 -26.597656 24.546875 -25.734375 C 25.679688 -26.484375 26.953125 -27.101562 28.359375 -27.59375 C 29.773438 -28.09375 31.484375 -28.34375 33.484375 -28.34375 C 34.921875 -28.34375 36.328125 -28.148438 37.703125 -27.765625 C 39.078125 -27.390625 40.300781 -26.796875 41.375 -25.984375 C 42.445312 -25.179688 43.300781 -24.109375 43.9375 -22.765625 C 44.582031 -21.429688 44.90625 -19.800781 44.90625 -17.875 L 44.90625 -0.0625 C 44.53125 0.0507812 43.9375 0.164062 43.125 0.28125 C 42.3125 0.394531 41.472656 0.453125 40.609375 0.453125 C 39.785156 0.453125 39.039062 0.394531 38.375 0.28125 C 37.71875 0.164062 37.160156 -0.0546875 36.703125 -0.390625 C 36.253906 -0.734375 35.90625 -1.195312 35.65625 -1.78125 C 35.414062 -2.363281 35.296875 -3.128906 35.296875 -4.078125 L 35.296875 -17.59375 C 35.296875 -18.71875 34.972656 -19.535156 34.328125 -20.046875 C 33.691406 -20.554688 32.828125 -20.8125 31.734375 -20.8125 C 31.203125 -20.8125 30.632812 -20.6875 30.03125 -20.4375 C 29.425781 -20.195312 28.972656 -19.945312 28.671875 -19.6875 C 28.710938 -19.53125 28.734375 -19.382812 28.734375 -19.25 C 28.734375 -19.125 28.734375 -19.003906 28.734375 -18.890625 L 28.734375 -0.0625 C 28.316406 0.0507812 27.703125 0.164062 26.890625 0.28125 C 26.078125 0.394531 25.257812 0.453125 24.4375 0.453125 C 23.601562 0.453125 22.851562 0.394531 22.1875 0.28125 C 21.53125 0.164062 20.976562 -0.0546875 20.53125 -0.390625 C 20.082031 -0.734375 19.734375 -1.195312 19.484375 -1.78125 C 19.242188 -2.363281 19.125 -3.128906 19.125 -4.078125 L 19.125 -17.59375 C 19.125 -18.71875 18.773438 -19.535156 18.078125 -20.046875 C 17.378906 -20.554688 16.535156 -20.8125 15.546875 -20.8125 C 14.867188 -20.8125 14.285156 -20.707031 13.796875 -20.5 C 13.304688 -20.289062 12.894531 -20.09375 12.5625 -19.90625 L 12.5625 -0.0625 C 12.175781 0.0507812 11.578125 0.164062 10.765625 0.28125 C 9.960938 0.394531 9.128906 0.453125 8.265625 0.453125 C 7.429688 0.453125 6.679688 0.394531 6.015625 0.28125 C 5.359375 0.164062 4.800781 -0.0546875 4.34375 -0.390625 C 3.894531 -0.734375 3.546875 -1.195312 3.296875 -1.78125 C 3.054688 -2.363281 2.9375 -3.128906 2.9375 -4.078125 L 2.9375 -21.15625 C 2.9375 -22.175781 3.148438 -22.984375 3.578125 -23.578125 C 4.015625 -24.179688 4.613281 -24.75 5.375 -25.28125 C 6.65625 -26.1875 8.25 -26.921875 10.15625 -27.484375 C 12.0625 -28.054688 14.050781 -28.34375 16.125 -28.34375 Z M 16.125 -28.34375 "/></g></g></g><g fill="#ffffff" fill-opacity="1"><g transform="translate(186.142698, 181.009882)"><g><path d="M 14.703125 -6.109375 C 15.347656 -6.109375 16.054688 -6.171875 16.828125 -6.296875 C 17.597656 -6.429688 18.171875 -6.613281 18.546875 -6.84375 L 18.546875 -11.375 L 14.484375 -11.03125 C 13.421875 -10.957031 12.550781 -10.726562 11.875 -10.34375 C 11.195312 -9.96875 10.859375 -9.40625 10.859375 -8.65625 C 10.859375 -7.894531 11.148438 -7.28125 11.734375 -6.8125 C 12.316406 -6.34375 13.304688 -6.109375 14.703125 -6.109375 Z M 14.25 -28.34375 C 16.289062 -28.34375 18.148438 -28.132812 19.828125 -27.71875 C 21.503906 -27.300781 22.9375 -26.664062 24.125 -25.8125 C 25.3125 -24.96875 26.222656 -23.894531 26.859375 -22.59375 C 27.503906 -21.289062 27.828125 -19.753906 27.828125 -17.984375 L 27.828125 -5.3125 C 27.828125 -4.332031 27.550781 -3.53125 27 -2.90625 C 26.457031 -2.289062 25.8125 -1.753906 25.0625 -1.296875 C 22.601562 0.171875 19.148438 0.90625 14.703125 0.90625 C 12.703125 0.90625 10.898438 0.71875 9.296875 0.34375 C 7.703125 -0.03125 6.328125 -0.59375 5.171875 -1.34375 C 4.023438 -2.101562 3.140625 -3.066406 2.515625 -4.234375 C 1.890625 -5.410156 1.578125 -6.769531 1.578125 -8.3125 C 1.578125 -10.914062 2.347656 -12.914062 3.890625 -14.3125 C 5.441406 -15.707031 7.84375 -16.570312 11.09375 -16.90625 L 18.5 -17.703125 L 18.5 -18.09375 C 18.5 -19.1875 18.015625 -19.96875 17.046875 -20.4375 C 16.085938 -20.914062 14.703125 -21.15625 12.890625 -21.15625 C 11.460938 -21.15625 10.066406 -21.003906 8.703125 -20.703125 C 7.347656 -20.398438 6.125 -20.023438 5.03125 -19.578125 C 4.539062 -19.910156 4.125 -20.425781 3.78125 -21.125 C 3.445312 -21.820312 3.28125 -22.546875 3.28125 -23.296875 C 3.28125 -24.285156 3.515625 -25.070312 3.984375 -25.65625 C 4.453125 -26.238281 5.179688 -26.738281 6.171875 -27.15625 C 7.265625 -27.5625 8.554688 -27.859375 10.046875 -28.046875 C 11.535156 -28.242188 12.9375 -28.34375 14.25 -28.34375 Z M 14.25 -28.34375 "/></g></g></g><g fill="#ffffff" fill-opacity="1"><g transform="translate(216.908478, 181.009882)"><g><path d="M 12.5625 -0.0625 C 12.175781 0.0507812 11.578125 0.164062 10.765625 0.28125 C 9.960938 0.394531 9.128906 0.453125 8.265625 0.453125 C 7.429688 0.453125 6.679688 0.394531 6.015625 0.28125 C 5.359375 0.164062 4.800781 -0.0546875 4.34375 -0.390625 C 3.894531 -0.734375 3.546875 -1.195312 3.296875 -1.78125 C 3.054688 -2.363281 2.9375 -3.128906 2.9375 -4.078125 L 2.9375 -21.046875 C 2.9375 -21.910156 3.097656 -22.648438 3.421875 -23.265625 C 3.742188 -23.890625 4.207031 -24.445312 4.8125 -24.9375 C 5.414062 -25.425781 6.160156 -25.867188 7.046875 -26.265625 C 7.929688 -26.660156 8.878906 -27.007812 9.890625 -27.3125 C 10.910156 -27.613281 11.96875 -27.847656 13.0625 -28.015625 C 14.15625 -28.191406 15.25 -28.28125 16.34375 -28.28125 C 18.15625 -28.28125 19.585938 -27.929688 20.640625 -27.234375 C 21.703125 -26.535156 22.234375 -25.394531 22.234375 -23.8125 C 22.234375 -23.28125 22.15625 -22.757812 22 -22.25 C 21.851562 -21.75 21.664062 -21.289062 21.4375 -20.875 C 20.644531 -20.875 19.832031 -20.832031 19 -20.75 C 18.175781 -20.675781 17.367188 -20.5625 16.578125 -20.40625 C 15.785156 -20.257812 15.039062 -20.101562 14.34375 -19.9375 C 13.644531 -19.769531 13.050781 -19.570312 12.5625 -19.34375 Z M 12.5625 -0.0625 "/></g></g></g><g fill="#ffffff" fill-opacity="1"><g transform="translate(240.152468, 181.009882)"><g><path d="M 14.703125 -6.109375 C 15.347656 -6.109375 16.054688 -6.171875 16.828125 -6.296875 C 17.597656 -6.429688 18.171875 -6.613281 18.546875 -6.84375 L 18.546875 -11.375 L 14.484375 -11.03125 C 13.421875 -10.957031 12.550781 -10.726562 11.875 -10.34375 C 11.195312 -9.96875 10.859375 -9.40625 10.859375 -8.65625 C 10.859375 -7.894531 11.148438 -7.28125 11.734375 -6.8125 C 12.316406 -6.34375 13.304688 -6.109375 14.703125 -6.109375 Z M 14.25 -28.34375 C 16.289062 -28.34375 18.148438 -28.132812 19.828125 -27.71875 C 21.503906 -27.300781 22.9375 -26.664062 24.125 -25.8125 C 25.3125 -24.96875 26.222656 -23.894531 26.859375 -22.59375 C 27.503906 -21.289062 27.828125 -19.753906 27.828125 -17.984375 L 27.828125 -5.3125 C 27.828125 -4.332031 27.550781 -3.53125 27 -2.90625 C 26.457031 -2.289062 25.8125 -1.753906 25.0625 -1.296875 C 22.601562 0.171875 19.148438 0.90625 14.703125 0.90625 C 12.703125 0.90625 10.898438 0.71875 9.296875 0.34375 C 7.703125 -0.03125 6.328125 -0.59375 5.171875 -1.34375 C 4.023438 -2.101562 3.140625 -3.066406 2.515625 -4.234375 C 1.890625 -5.410156 1.578125 -6.769531 1.578125 -8.3125 C 1.578125 -10.914062 2.347656 -12.914062 3.890625 -14.3125 C 5.441406 -15.707031 7.84375 -16.570312 11.09375 -16.90625 L 18.5 -17.703125 L 18.5 -18.09375 C 18.5 -19.1875 18.015625 -19.96875 17.046875 -20.4375 C 16.085938 -20.914062 14.703125 -21.15625 12.890625 -21.15625 C 11.460938 -21.15625 10.066406 -21.003906 8.703125 -20.703125 C 7.347656 -20.398438 6.125 -20.023438 5.03125 -19.578125 C 4.539062 -19.910156 4.125 -20.425781 3.78125 -21.125 C 3.445312 -21.820312 3.28125 -22.546875 3.28125 -23.296875 C 3.28125 -24.285156 3.515625 -25.070312 3.984375 -25.65625 C 4.453125 -26.238281 5.179688 -26.738281 6.171875 -27.15625 C 7.265625 -27.5625 8.554688 -27.859375 10.046875 -28.046875 C 11.535156 -28.242188 12.9375 -28.34375 14.25 -28.34375 Z M 14.25 -28.34375 "/></g></g></g><g fill="#ffffff" fill-opacity="1"><g transform="translate(270.918247, 181.009882)"><g><path d="M 1.25 -4.578125 C 1.25 -6.160156 1.738281 -7.476562 2.71875 -8.53125 C 3.695312 -9.59375 5.035156 -10.125 6.734375 -10.125 C 8.429688 -10.125 9.769531 -9.59375 10.75 -8.53125 C 11.726562 -7.476562 12.21875 -6.160156 12.21875 -4.578125 C 12.21875 -2.992188 11.726562 -1.671875 10.75 -0.609375 C 9.769531 0.441406 8.429688 0.96875 6.734375 0.96875 C 5.035156 0.96875 3.695312 0.441406 2.71875 -0.609375 C 1.738281 -1.671875 1.25 -2.992188 1.25 -4.578125 Z M 1.25 -4.578125 "/></g></g></g></svg>